<mxfile host="app.diagrams.net" modified="2023-03-28T18:02:24.662Z" agent="Mozilla/5.0 (Windows NT 10.0; Win64; x64; rv:109.0) Gecko/20100101 Firefox/111.0" etag="eMiQvrwZBr8BpzHu173w" version="21.1.1">
  <diagram id="sVKBjJIHnK-cAhxMXB9x" name="Page-1">
    <mxGraphModel dx="1391" dy="715" grid="1" gridSize="10" guides="1" tooltips="1" connect="1" arrows="1" fold="1" page="1" pageScale="1" pageWidth="850" pageHeight="1100" math="0" shadow="0">
      <root>
        <mxCell id="0" />
        <mxCell id="1" parent="0" />
        <mxCell id="1sFLTVxkpSNpLKOqPgkS-2" value="&lt;div style=&quot;font-size: 22px;&quot; align=&quot;left&quot;&gt;&lt;font style=&quot;font-size: 22px;&quot;&gt;VPS 1&lt;/font&gt;&lt;/div&gt;" style="points=[[0,0],[0.25,0],[0.5,0],[0.75,0],[1,0],[1,0.25],[1,0.5],[1,0.75],[1,1],[0.75,1],[0.5,1],[0.25,1],[0,1],[0,0.75],[0,0.5],[0,0.25]];outlineConnect=0;gradientColor=none;html=1;whiteSpace=wrap;fontSize=12;fontStyle=0;container=1;pointerEvents=0;collapsible=0;recursiveResize=0;shape=mxgraph.aws4.group;grIcon=mxgraph.aws4.group_on_premise;strokeColor=#5A6C86;fillColor=none;verticalAlign=top;align=left;spacingLeft=30;fontColor=#5A6C86;dashed=0;" parent="1" vertex="1">
          <mxGeometry x="250" y="390" width="200" height="190" as="geometry" />
        </mxCell>
        <mxCell id="1sFLTVxkpSNpLKOqPgkS-12" value="&lt;font style=&quot;font-size: 14px;&quot;&gt;&lt;sup&gt;&lt;font style=&quot;font-size: 14px;&quot;&gt;CTFd&lt;/font&gt;&lt;/sup&gt;&lt;/font&gt;" style="rounded=1;whiteSpace=wrap;html=1;fontSize=22;" parent="1sFLTVxkpSNpLKOqPgkS-2" vertex="1">
          <mxGeometry x="120" y="129" width="60" height="50" as="geometry" />
        </mxCell>
        <mxCell id="1sFLTVxkpSNpLKOqPgkS-85" value="" style="edgeStyle=orthogonalEdgeStyle;rounded=0;orthogonalLoop=1;jettySize=auto;html=1;strokeColor=default;fontSize=14;" parent="1sFLTVxkpSNpLKOqPgkS-2" source="1sFLTVxkpSNpLKOqPgkS-13" target="1sFLTVxkpSNpLKOqPgkS-14" edge="1">
          <mxGeometry relative="1" as="geometry" />
        </mxCell>
        <mxCell id="1sFLTVxkpSNpLKOqPgkS-13" value="&lt;font style=&quot;font-size: 14px;&quot;&gt;&lt;sup&gt;&lt;font style=&quot;font-size: 14px;&quot;&gt;Nginx&lt;/font&gt;&lt;/sup&gt;&lt;/font&gt;" style="rounded=1;whiteSpace=wrap;html=1;fontSize=22;" parent="1sFLTVxkpSNpLKOqPgkS-2" vertex="1">
          <mxGeometry x="120" y="50" width="60" height="50" as="geometry" />
        </mxCell>
        <mxCell id="1sFLTVxkpSNpLKOqPgkS-14" value="&lt;font style=&quot;font-size: 14px;&quot;&gt;&lt;sup&gt;&lt;font style=&quot;font-size: 14px;&quot;&gt;Cache&lt;/font&gt;&lt;/sup&gt;&lt;/font&gt;" style="rounded=1;whiteSpace=wrap;html=1;fontSize=22;" parent="1sFLTVxkpSNpLKOqPgkS-2" vertex="1">
          <mxGeometry x="20" y="50" width="60" height="50" as="geometry" />
        </mxCell>
        <mxCell id="1sFLTVxkpSNpLKOqPgkS-15" value="&lt;font style=&quot;font-size: 14px;&quot;&gt;&lt;sup&gt;&lt;font style=&quot;font-size: 14px;&quot;&gt;DB&lt;/font&gt;&lt;/sup&gt;&lt;/font&gt;" style="rounded=1;whiteSpace=wrap;html=1;fontSize=22;" parent="1sFLTVxkpSNpLKOqPgkS-2" vertex="1">
          <mxGeometry x="23" y="129" width="60" height="50" as="geometry" />
        </mxCell>
        <mxCell id="1sFLTVxkpSNpLKOqPgkS-39" value="" style="endArrow=classic;startArrow=classic;html=1;rounded=0;fontSize=14;entryX=0.5;entryY=1;entryDx=0;entryDy=0;exitX=0.501;exitY=-0.033;exitDx=0;exitDy=0;exitPerimeter=0;fillColor=#d80073;strokeColor=#A50040;" parent="1sFLTVxkpSNpLKOqPgkS-2" source="1sFLTVxkpSNpLKOqPgkS-12" target="1sFLTVxkpSNpLKOqPgkS-13" edge="1">
          <mxGeometry width="50" height="50" relative="1" as="geometry">
            <mxPoint x="182" y="130" as="sourcePoint" />
            <mxPoint x="181" y="110" as="targetPoint" />
          </mxGeometry>
        </mxCell>
        <mxCell id="1sFLTVxkpSNpLKOqPgkS-43" value="" style="endArrow=classic;startArrow=classic;html=1;rounded=0;fontSize=14;entryX=1;entryY=0.5;entryDx=0;entryDy=0;exitX=0;exitY=0.5;exitDx=0;exitDy=0;fillColor=#d80073;strokeColor=#A50040;" parent="1sFLTVxkpSNpLKOqPgkS-2" source="1sFLTVxkpSNpLKOqPgkS-12" target="1sFLTVxkpSNpLKOqPgkS-15" edge="1">
          <mxGeometry width="50" height="50" relative="1" as="geometry">
            <mxPoint x="131.05999999999995" y="177.35000000000002" as="sourcePoint" />
            <mxPoint x="131" y="142" as="targetPoint" />
          </mxGeometry>
        </mxCell>
        <mxCell id="1sFLTVxkpSNpLKOqPgkS-45" value="" style="endArrow=classic;startArrow=classic;html=1;rounded=0;fontSize=14;fillColor=#d80073;strokeColor=#A50040;" parent="1sFLTVxkpSNpLKOqPgkS-2" edge="1">
          <mxGeometry width="50" height="50" relative="1" as="geometry">
            <mxPoint x="121" y="75" as="sourcePoint" />
            <mxPoint x="81" y="75" as="targetPoint" />
          </mxGeometry>
        </mxCell>
        <mxCell id="1sFLTVxkpSNpLKOqPgkS-10" value="" style="points=[[0.35,0,0],[0.98,0.51,0],[1,0.71,0],[0.67,1,0],[0,0.795,0],[0,0.65,0]];verticalLabelPosition=bottom;sketch=0;html=1;verticalAlign=top;aspect=fixed;align=center;pointerEvents=1;shape=mxgraph.cisco19.user;fillColor=#005073;strokeColor=none;fontSize=22;" parent="1" vertex="1">
          <mxGeometry x="470" y="220" width="50" height="50" as="geometry" />
        </mxCell>
        <mxCell id="1sFLTVxkpSNpLKOqPgkS-4" value="&lt;div style=&quot;font-size: 22px;&quot; align=&quot;center&quot;&gt;&lt;font style=&quot;font-size: 22px;&quot;&gt;VPS 2&lt;br&gt;&lt;/font&gt;&lt;/div&gt;" style="points=[[0,0],[0.25,0],[0.5,0],[0.75,0],[1,0],[1,0.25],[1,0.5],[1,0.75],[1,1],[0.75,1],[0.5,1],[0.25,1],[0,1],[0,0.75],[0,0.5],[0,0.25]];outlineConnect=0;gradientColor=none;html=1;whiteSpace=wrap;fontSize=12;fontStyle=0;container=1;pointerEvents=0;collapsible=0;recursiveResize=0;shape=mxgraph.aws4.group;grIcon=mxgraph.aws4.group_on_premise;strokeColor=#5A6C86;fillColor=none;verticalAlign=top;align=center;spacingLeft=30;fontColor=#5A6C86;dashed=0;" parent="1" vertex="1">
          <mxGeometry x="490" y="390" width="190" height="190" as="geometry" />
        </mxCell>
        <mxCell id="1sFLTVxkpSNpLKOqPgkS-55" value="" style="sketch=0;aspect=fixed;html=1;points=[];align=center;image;fontSize=12;image=img/lib/mscae/Docker.svg;" parent="1sFLTVxkpSNpLKOqPgkS-4" vertex="1">
          <mxGeometry x="74" y="100" width="36.59" height="30" as="geometry" />
        </mxCell>
        <mxCell id="1sFLTVxkpSNpLKOqPgkS-74" value="" style="sketch=0;aspect=fixed;html=1;points=[];align=center;image;fontSize=12;image=img/lib/mscae/Docker.svg;" parent="1sFLTVxkpSNpLKOqPgkS-4" vertex="1">
          <mxGeometry x="74" y="50" width="36.59" height="30" as="geometry" />
        </mxCell>
        <mxCell id="1sFLTVxkpSNpLKOqPgkS-73" value="" style="sketch=0;aspect=fixed;html=1;points=[];align=center;image;fontSize=12;image=img/lib/mscae/Docker.svg;" parent="1sFLTVxkpSNpLKOqPgkS-4" vertex="1">
          <mxGeometry x="24" y="100" width="36.59" height="30" as="geometry" />
        </mxCell>
        <mxCell id="1sFLTVxkpSNpLKOqPgkS-72" value="" style="sketch=0;aspect=fixed;html=1;points=[];align=center;image;fontSize=12;image=img/lib/mscae/Docker.svg;" parent="1sFLTVxkpSNpLKOqPgkS-4" vertex="1">
          <mxGeometry x="24" y="145" width="36.59" height="30" as="geometry" />
        </mxCell>
        <mxCell id="1sFLTVxkpSNpLKOqPgkS-71" value="" style="sketch=0;aspect=fixed;html=1;points=[];align=center;image;fontSize=12;image=img/lib/mscae/Docker.svg;" parent="1sFLTVxkpSNpLKOqPgkS-4" vertex="1">
          <mxGeometry x="74" y="145" width="36.59" height="30" as="geometry" />
        </mxCell>
        <mxCell id="1sFLTVxkpSNpLKOqPgkS-70" value="" style="sketch=0;aspect=fixed;html=1;points=[];align=center;image;fontSize=12;image=img/lib/mscae/Docker.svg;" parent="1sFLTVxkpSNpLKOqPgkS-4" vertex="1">
          <mxGeometry x="24" y="50" width="36.59" height="30" as="geometry" />
        </mxCell>
        <mxCell id="1sFLTVxkpSNpLKOqPgkS-79" value="" style="sketch=0;aspect=fixed;html=1;points=[];align=center;image;fontSize=12;image=img/lib/mscae/Docker.svg;" parent="1sFLTVxkpSNpLKOqPgkS-4" vertex="1">
          <mxGeometry x="124" y="100" width="36.59" height="30" as="geometry" />
        </mxCell>
        <mxCell id="1sFLTVxkpSNpLKOqPgkS-80" value="" style="sketch=0;aspect=fixed;html=1;points=[];align=center;image;fontSize=12;image=img/lib/mscae/Docker.svg;" parent="1sFLTVxkpSNpLKOqPgkS-4" vertex="1">
          <mxGeometry x="124" y="50" width="36.59" height="30" as="geometry" />
        </mxCell>
        <mxCell id="1sFLTVxkpSNpLKOqPgkS-81" value="" style="sketch=0;aspect=fixed;html=1;points=[];align=center;image;fontSize=12;image=img/lib/mscae/Docker.svg;" parent="1sFLTVxkpSNpLKOqPgkS-4" vertex="1">
          <mxGeometry x="124" y="145" width="36.59" height="30" as="geometry" />
        </mxCell>
        <mxCell id="1sFLTVxkpSNpLKOqPgkS-90" value="User" style="text;html=1;strokeColor=none;fillColor=none;align=center;verticalAlign=middle;whiteSpace=wrap;rounded=0;fontSize=14;" parent="1" vertex="1">
          <mxGeometry x="425" y="220" width="60" height="30" as="geometry" />
        </mxCell>
        <mxCell id="1sFLTVxkpSNpLKOqPgkS-91" value="Challenges" style="text;html=1;strokeColor=none;fillColor=none;align=center;verticalAlign=middle;whiteSpace=wrap;rounded=0;fontSize=14;" parent="1" vertex="1">
          <mxGeometry x="555" y="590" width="60" height="30" as="geometry" />
        </mxCell>
        <mxCell id="1sFLTVxkpSNpLKOqPgkS-92" value="CTF platform" style="text;html=1;strokeColor=none;fillColor=none;align=center;verticalAlign=middle;whiteSpace=wrap;rounded=0;fontSize=14;" parent="1" vertex="1">
          <mxGeometry x="305" y="590" width="90" height="30" as="geometry" />
        </mxCell>
        <mxCell id="1sFLTVxkpSNpLKOqPgkS-94" value="" style="shape=image;imageAspect=0;aspect=fixed;verticalLabelPosition=bottom;verticalAlign=top;fontSize=14;image=https://allcode.com/wp-content/uploads/2022/08/cloudflare-logo.webp;" parent="1" vertex="1">
          <mxGeometry x="350" y="310" width="100" height="50" as="geometry" />
        </mxCell>
        <mxCell id="1sFLTVxkpSNpLKOqPgkS-96" value="" style="endArrow=classic;startArrow=classic;html=1;rounded=0;fontSize=14;entryX=0.821;entryY=1.001;entryDx=0;entryDy=0;fillColor=#d80073;strokeColor=#A50040;entryPerimeter=0;exitX=0.25;exitY=0;exitDx=0;exitDy=0;" parent="1" source="1sFLTVxkpSNpLKOqPgkS-4" target="1sFLTVxkpSNpLKOqPgkS-10" edge="1">
          <mxGeometry width="50" height="50" relative="1" as="geometry">
            <mxPoint x="540" y="380" as="sourcePoint" />
            <mxPoint x="510" y="280.0000000000001" as="targetPoint" />
          </mxGeometry>
        </mxCell>
        <mxCell id="1sFLTVxkpSNpLKOqPgkS-100" value="" style="endArrow=classic;startArrow=classic;html=1;rounded=0;fontSize=14;fillColor=#d80073;strokeColor=#A50040;entryX=0;entryY=0.65;entryDx=0;entryDy=0;entryPerimeter=0;exitX=0.75;exitY=0;exitDx=0;exitDy=0;" parent="1" source="1sFLTVxkpSNpLKOqPgkS-94" target="1sFLTVxkpSNpLKOqPgkS-10" edge="1">
          <mxGeometry width="50" height="50" relative="1" as="geometry">
            <mxPoint x="430" y="280" as="sourcePoint" />
            <mxPoint x="460" y="260" as="targetPoint" />
          </mxGeometry>
        </mxCell>
        <mxCell id="1sFLTVxkpSNpLKOqPgkS-101" value="" style="endArrow=classic;startArrow=classic;html=1;rounded=0;fontSize=14;fillColor=#d80073;strokeColor=#A50040;" parent="1" edge="1">
          <mxGeometry width="50" height="50" relative="1" as="geometry">
            <mxPoint x="399.76" y="440" as="sourcePoint" />
            <mxPoint x="400" y="360" as="targetPoint" />
          </mxGeometry>
        </mxCell>
      </root>
    </mxGraphModel>
  </diagram>
</mxfile>
